<svg width="36" height="35" viewBox="0 0 36 35" fill="none" xmlns="http://www.w3.org/2000/svg">
<path d="M18.0016 34.4C14.7349 34.4 11.7682 33.6667 9.10156 32.2C6.4349 30.6667 4.30156 28.6 2.70156 26C1.16823 23.4 0.401562 20.5 0.401562 17.3C0.401562 14.1 1.16823 11.2 2.70156 8.6C4.30156 6 6.4349 3.93333 9.10156 2.4C11.7682 0.866662 14.7349 0.0999949 18.0016 0.0999949C21.2682 0.0999949 24.2016 0.866662 26.8016 2.4C29.4682 3.93333 31.5682 6 33.1016 8.6C34.7016 11.2 35.5016 14.1 35.5016 17.3C35.5016 20.5 34.7016 23.4 33.1016 26C31.5682 28.5333 29.4682 30.5667 26.8016 32.1C24.2016 33.6333 21.2682 34.4 18.0016 34.4ZM18.0016 26.7C19.7349 26.7 21.3016 26.3 22.7016 25.5C24.1016 24.6333 25.2016 23.5 26.0016 22.1C26.8016 20.7 27.2016 19.1 27.2016 17.3C27.2016 15.5 26.8016 13.9 26.0016 12.5C25.2016 11.0333 24.1016 9.9 22.7016 9.1C21.3016 8.3 19.7349 7.9 18.0016 7.9C16.2016 7.9 14.6016 8.3 13.2016 9.1C11.8016 9.9 10.7016 11 9.90156 12.4C9.10156 13.8 8.70156 15.4333 8.70156 17.3C8.70156 19.1 9.10156 20.7 9.90156 22.1C10.7016 23.5 11.8016 24.6333 13.2016 25.5C14.6016 26.3 16.2016 26.7 18.0016 26.7Z" fill="white"/>
</svg>
